<svg xmlns="http://www.w3.org/2000/svg" viewBox="0 0 64 64" role="img" aria-label="NoteVerse Favicon">
  <defs>
    <linearGradient id="bg" x1="0" y1="0" x2="1" y2="1">
      <stop offset="0%" stop-color="#7c3aed"/>
      <stop offset="100%" stop-color="#06b6d4"/>
    </linearGradient>
  </defs>
  <rect width="64" height="64" rx="14" fill="url(#bg)"/>
  <path d="M18 16h12c6 0 10 2 14 6v26c-4-4-8-6-14-6H18V16Z" fill="#ffffff" fill-opacity="0.95"/>
  <path d="M46 16H34c-6 0-10 2-14 6v26c4-4 8-6 14-6h12V16Z" fill="#f8fafc" fill-opacity="0.88"/>
  <path d="M32 23v25" stroke="#5b21b6" stroke-width="2" stroke-linecap="round"/>
  <path d="M23 27h7M23 32h7M23 37h6" stroke="#7c3aed" stroke-width="1.8" stroke-linecap="round"/>
  <path d="M34 27h7M34 32h7M34 37h6" stroke="#06b6d4" stroke-width="1.8" stroke-linecap="round"/>
</svg>
