<svg xmlns="http://www.w3.org/2000/svg" viewBox="0 0 920 320" role="img" aria-label="NoteVerse Logo">
  <defs>
    <linearGradient id="iconGrad" x1="0" y1="0" x2="1" y2="1">
      <stop offset="0%" stop-color="#7c3aed"/>
      <stop offset="100%" stop-color="#06b6d4"/>
    </linearGradient>
    <filter id="shadow" x="-30%" y="-30%" width="160%" height="160%">
      <feDropShadow dx="0" dy="6" stdDeviation="8" flood-color="#0f172a" flood-opacity="0.2"/>
    </filter>
  </defs>

  <g filter="url(#shadow)">
    <rect x="24" y="24" width="272" height="272" rx="48" fill="url(#iconGrad)"/>
    <path d="M76 74h58c34 0 60 10 86 36v126c-26-26-52-36-86-36H76V74Z" fill="#fff" fill-opacity="0.98"/>
    <path d="M244 74h-58c-34 0-60 10-86 36v126c26-26 52-36 86-36h58V74Z" fill="#f8fafc" fill-opacity="0.9"/>
    <path d="M160 104v128" stroke="#5b21b6" stroke-width="5" stroke-linecap="round"/>
    <path d="M96 126h40M96 152h40M96 178h34" stroke="#7c3aed" stroke-width="4" stroke-linecap="round"/>
    <path d="M184 126h40M184 152h40M184 178h34" stroke="#06b6d4" stroke-width="4" stroke-linecap="round"/>
  </g>

  <g font-family="Inter, Segoe UI, Arial, sans-serif" fill="#0f172a">
    <text x="336" y="156" font-size="88" font-weight="800" letter-spacing="-1">NoteVerse</text>
    <text x="338" y="206" font-size="28" font-weight="500" fill="#475569">Capture ideas. Build clarity.</text>
  </g>
</svg>
